<svg width="2048" height="2473" viewBox="0 0 2048 2473" fill="none" xmlns="http://www.w3.org/2000/svg">
<path fill-rule="evenodd" clip-rule="evenodd" d="M2034.15 1883.83L1183.8 77.9993C1173.24 55.7752 1156.86 36.8212 1136.4 23.1436C1115.95 9.46599 1092.17 1.57363 1067.6 0.301907C1042.98 -1.34757 1018.38 3.78467 996.474 15.1405C974.569 26.4963 956.197 43.6409 943.356 64.7097L21.0625 1558.51C7.03751 1581.07 -0.266276 1607.16 0.00741939 1633.72C0.281115 1660.28 8.12095 1686.21 22.6078 1708.47L473.524 2406.76C490.584 2432.97 515.66 2452.96 545.013 2463.76C574.366 2474.55 606.421 2475.57 636.398 2466.65L1944.95 2079.59C1964.66 2073.83 1982.89 2063.9 1998.43 2050.49C2013.97 2037.07 2026.44 2020.48 2035.01 2001.83C2043.47 1983.27 2047.77 1963.1 2047.63 1942.71C2047.49 1922.32 2042.91 1902.21 2034.21 1883.77L2034.15 1883.83ZM1843.77 1961.28L733.381 2289.62C699.508 2299.7 666.995 2270.34 674.042 2236.16L1070.75 336.62C1078.17 301.078 1127.25 295.453 1142.76 328.337L1877.15 1887.85C1880.39 1894.8 1882.09 1902.37 1882.13 1910.04C1882.17 1917.71 1880.54 1925.3 1877.36 1932.28C1874.18 1939.26 1869.53 1945.47 1863.72 1950.47C1857.91 1955.48 1851.14 1959.17 1843.77 1961.28Z" fill="#5486A3"/>
</svg>
